<svg xmlns="http://www.w3.org/2000/svg" viewBox="0 0 1200 300" role="img" aria-labelledby="title desc">
  <title id="title">Textbound Adventures</title>
  <desc id="desc">Textbound Adventures wordmark with compass and path symbol.</desc>
  <g transform="translate(32 23) scale(.5)">
    <g fill="none" stroke="#D4A450" stroke-linecap="round" stroke-linejoin="round">
      <circle cx="256" cy="238" r="164" stroke-width="15"/>
      <path d="M256 36 285 207 256 238 227 207Z" fill="#F8F6EF" stroke-width="8"/>
      <path d="M256 440 227 269 256 238 285 269Z" fill="#A8782E" stroke-width="8"/>
      <path d="M54 238 225 209 256 238 225 267Z" fill="#EADCC5" stroke-width="8"/>
      <path d="M458 238 287 267 256 238 287 209Z" fill="#D4A450" stroke-width="8"/>
      <circle cx="256" cy="238" r="43" fill="#081220" stroke-width="10"/>
      <path d="M174 492 C178 423 315 437 332 368 C348 304 225 319 240 272 C246 254 263 250 256 238" stroke="#081220" stroke-width="46"/>
      <path d="M174 492 C178 423 315 437 332 368 C348 304 225 319 240 272 C246 254 263 250 256 238" stroke="#D4A450" stroke-width="28"/>
    </g>
  </g>
  <text x="322" y="151" fill="#F8F6EF" font-family="Georgia, 'Times New Roman', serif" font-size="124" font-weight="700" letter-spacing="-5">Textbound</text>
  <path d="M325 194H1080" stroke="#D4A450" stroke-width="3"/>
  <text x="330" y="251" fill="#D4A450" font-family="Arial, Helvetica, sans-serif" font-size="33" font-weight="700" letter-spacing="18">ADVENTURES</text>
</svg>
